<svg width="388" height="172" viewBox="0 0 388 172" fill="none" xmlns="http://www.w3.org/2000/svg">
<path d="M198.657 120.857L167.888 44.3074L167.59 43.8643C164.778 38.9652 159.747 36 153.977 36C148.208 36 143.185 38.9729 140.373 43.8643L140.228 44.1623L109.452 120.856C107.081 126.345 107.675 132.575 110.785 137.328C113.597 141.631 118.178 144 123.208 144H185.045C190.075 144 194.511 141.776 197.323 137.618C200.288 133.024 200.875 126.643 198.657 120.857ZM123.506 105.725L147.027 47.4265C148.505 44.9044 151.165 43.4223 154.13 43.4223C157.095 43.4223 159.603 44.9044 161.234 47.4265L173.512 77.982C161.974 93.5578 143.924 104.242 123.507 105.725H123.506Z" fill="white"/>
<path d="M15.7227 139C16.8757 130.981 17.7404 123.408 18.3169 116.281C18.8934 109.153 19.1816 102.419 19.1816 96.0771C19.1816 88.7399 18.8672 81.7433 18.2383 75.0874C17.6618 68.3791 16.9805 62.0114 16.1943 55.9844L15.7227 53.3115C18.9196 52.9447 22.0903 52.2109 25.2349 51.1104C28.4318 49.9574 31.8646 48.3589 35.5332 46.3149C34.3278 53.9666 33.4106 60.9894 32.7817 67.3833C32.2052 73.7772 31.917 79.5946 31.917 84.8354C31.917 85.7788 31.917 86.6436 31.917 87.4297C31.917 88.2158 31.9432 89.0806 31.9956 90.0239C32.048 90.9673 32.1004 92.0679 32.1528 93.3257C32.2052 94.5835 32.2839 96.1296 32.3887 97.9639L33.8823 98.6714C40.381 101.03 46.2246 102.209 51.4131 102.209C55.0293 102.157 58.4097 101.632 61.5542 100.637C64.7511 99.5885 67.6598 98.1473 70.2803 96.313C72.9531 94.4787 75.1019 92.2251 76.7266 89.5522C78.3512 86.8794 79.478 83.8659 80.1069 80.5117C80.4214 78.625 80.6572 76.8693 80.8145 75.2446C81.0241 73.5675 81.1289 71.9953 81.1289 70.5278C81.1289 67.9074 80.8407 65.3656 80.2642 62.9023C79.6877 60.3867 78.9277 58.0283 77.9844 55.8271C77.041 53.5736 75.9404 51.5296 74.6826 49.6953C73.4772 47.8086 72.2194 46.1577 70.9092 44.7427C69.7038 43.4849 68.1577 42.2795 66.271 41.1265C64.4367 39.9735 62.3403 38.9515 59.9819 38.0605C57.6235 37.1696 55.0293 36.4621 52.1992 35.938C49.4215 35.4139 46.4342 35.1519 43.2373 35.1519C40.512 35.1519 37.6296 35.4925 34.5898 36.1738C31.6025 36.8027 28.5628 37.7199 25.4707 38.9253C22.3786 40.1307 19.2603 41.5981 16.1157 43.3276C13.0236 45.0571 10.0101 47.0225 7.0752 49.2236L12.3423 28.627C16.4302 27.0023 19.5223 25.7707 21.6187 24.9321C23.715 24.0936 24.868 23.6481 25.0776 23.5957C29.7944 22.3379 33.8037 21.4207 37.1055 20.8442C40.4072 20.2153 43.1325 19.9009 45.2812 19.9009C47.7445 19.9009 50.5221 20.2153 53.6143 20.8442C56.7588 21.4207 59.9557 22.3379 63.2051 23.5957C66.5068 24.8011 69.7038 26.321 72.7959 28.1553C75.9404 29.9372 78.7705 32.0073 81.2861 34.3657C83.3825 36.3573 85.2954 38.637 87.0249 41.2051C88.7544 43.7207 90.248 46.4198 91.5059 49.3022C92.7637 52.1847 93.7332 55.1982 94.4146 58.3428C95.0959 61.4873 95.4365 64.658 95.4365 67.855C95.3841 70.6851 95.0959 73.5151 94.5718 76.3452C94.0477 79.1229 93.2091 81.953 92.0562 84.8354C90.9032 87.6655 89.2523 90.4956 87.1035 93.3257C84.9548 96.1034 82.2295 98.75 78.9277 101.266C78.194 101.842 77.4865 102.314 76.8052 102.681L76.7266 102.759C79.7663 108.734 82.8846 114.158 86.0815 119.032C89.3309 123.854 92.6851 128.178 96.144 132.003C92.9471 132.37 89.7502 133.13 86.5532 134.283C83.4087 135.384 80.0021 136.956 76.3335 139C71.4071 123.33 67.555 112.848 64.7773 107.555C64.2533 107.66 63.6506 107.764 62.9692 107.869C62.2879 107.974 61.4756 108.079 60.5322 108.184C59.5889 108.288 58.5669 108.393 57.4663 108.498C56.3657 108.55 55.2913 108.577 54.2432 108.577C50.7842 108.577 47.3514 108.315 43.9448 107.791C40.5907 107.214 37.2365 106.454 33.8823 105.511L32.7031 105.275C33.1224 112.298 33.4893 117.879 33.8037 122.02C34.1182 126.107 34.485 128.754 34.9043 129.959L35.5332 131.768C33.07 132.03 30.8164 132.423 28.7725 132.947C26.7809 133.471 24.9728 134.1 23.3481 134.833C21.7235 135.567 20.2822 136.301 19.0244 137.035C17.7666 137.716 16.666 138.371 15.7227 139ZM210.998 45.9219C211.994 41.6243 212.492 37.1172 212.492 32.4004C212.492 30.9854 212.439 29.5703 212.334 28.1553C212.282 26.7402 212.151 25.3252 211.941 23.9102L211.47 22.2593C218.23 21.578 225.07 19.2458 231.988 15.2627L232.538 14.9482C231.7 17.9355 231.28 22.2069 231.28 27.7622C231.28 29.2297 231.333 30.8543 231.438 32.6362C231.595 34.3657 231.804 36.2786 232.066 38.375C229.918 38.637 227.769 39.0563 225.62 39.6328C223.524 40.1569 221.532 40.7858 219.646 41.5195C217.811 42.2008 216.134 42.9346 214.614 43.7207C213.147 44.5068 211.941 45.2406 210.998 45.9219ZM198.263 168.008C205.39 158.522 210.579 148.25 213.828 137.192C214.929 133.523 215.479 123.801 215.479 108.026V106.061C215.479 98.7238 215.243 91.2293 214.771 83.5776C214.3 75.9259 213.618 68.0122 212.728 59.8364L212.256 57.1636C215.453 56.7967 218.624 56.063 221.768 54.9624C224.965 53.8094 228.214 52.3158 231.516 50.4814L232.066 50.167C230.861 57.6615 229.944 65.2345 229.315 72.8862C228.738 80.4855 228.45 88.242 228.45 96.1558C228.45 103.336 228.607 109.441 228.922 114.473C229.289 119.451 229.76 123.12 230.337 125.479C230.337 125.583 230.049 126.369 229.472 127.837C228.896 129.252 228.057 131.112 226.957 133.418C225.856 135.672 224.52 138.188 222.947 140.965C221.375 143.743 219.593 146.494 217.602 149.22C210.788 158.496 204.63 164.838 199.127 168.244L198.263 168.008ZM254 72.9648C255.362 69.8203 257.668 66.9378 260.917 64.3174L264.612 61.3301L282.536 50.167C285.523 50.9531 289.218 52.473 293.621 54.7266C297.813 56.8753 301.744 59.7316 305.413 63.2954C310.025 67.8026 313.274 72.6504 315.161 77.8389C317.205 82.8701 318.305 88.373 318.462 94.3477C318.829 109.232 319.799 120.762 321.371 128.938L322 131.768C318.436 132.187 315.239 132.921 312.409 133.969C307.85 135.646 304.443 137.323 302.189 139C304.181 124.85 305.177 110.778 305.177 96.7847C305.177 96.1034 305.177 95.3958 305.177 94.6621C305.177 88.6875 304.233 84.1279 302.347 80.9834C299.045 76.1094 294.485 72.3097 288.668 69.5845C283.427 67.1213 275.671 64.7629 265.398 62.5093C264.56 63.8195 264.141 66.0993 264.141 69.3486C264.141 71.3926 264.481 74.0654 265.163 77.3672L254 72.9648ZM285.602 139C282.615 137.952 277.872 135.751 271.373 132.396C266.499 129.881 261.782 126.107 257.223 121.076C253.868 115.835 252.191 110.987 252.191 106.533C252.191 106.428 252.191 106.297 252.191 106.14C252.978 99.7982 255.912 94.6621 260.996 90.7314C269.591 84.1279 280.361 80.7738 293.306 80.6689C277.321 86.5387 268.071 93.0898 265.556 100.322C265.032 101.842 264.77 103.31 264.77 104.725C264.77 107.135 265.608 109.284 267.285 111.171C271.792 115.73 275.592 118.77 278.684 120.29C288.17 124.954 295.979 127.575 302.111 128.151L285.602 139ZM343.619 139C344.772 131.086 345.61 122.753 346.134 114.001C346.711 105.249 346.999 95.9723 346.999 86.1719C346.999 84.4948 346.999 82.9487 346.999 81.5337C346.999 80.1187 346.973 78.8346 346.92 77.6816L346.449 59.7578C342.675 59.8626 339.085 60.0723 335.679 60.3867C332.325 60.7012 329.075 61.1466 325.931 61.7231C326.664 60.5701 327.346 59.0241 327.975 57.085C328.551 55.0934 328.997 52.7874 329.311 50.167L330.569 50.5601C332.089 51.0317 334.133 51.3724 336.701 51.582C339.269 51.7393 342.387 51.8965 346.056 52.0537C345.794 47.1797 345.505 42.9084 345.191 39.2397C344.876 35.5711 344.51 32.4528 344.09 29.8848L343.619 27.2119C346.816 26.8451 349.986 26.1113 353.131 25.0107C356.328 23.8577 359.761 22.2593 363.429 20.2153C361.962 29.5441 360.94 40.2093 360.363 52.2109C364.346 52.1061 368.041 51.8965 371.448 51.582C374.907 51.2152 378.13 50.7435 381.117 50.167C379.388 53.7308 378.313 57.5828 377.894 61.7231L376.636 61.4087C374.854 60.9894 372.575 60.7012 369.797 60.5439C367.019 60.3343 363.77 60.1247 360.049 59.915C359.996 62.2734 359.944 64.6318 359.892 66.9902C359.892 69.3486 359.892 71.7856 359.892 74.3013V77.0527C359.944 89.6833 360.18 100.296 360.599 108.891C361.018 117.486 361.752 124.168 362.8 128.938L363.429 131.768C361.542 132.03 359.603 132.449 357.612 133.025C355.62 133.549 353.707 134.178 351.873 134.912C350.091 135.593 348.466 136.301 346.999 137.035C345.532 137.768 344.405 138.424 343.619 139Z" fill="white"/>
</svg>
