<svg width="218" height="39" viewBox="0 0 218 39" fill="none" xmlns="http://www.w3.org/2000/svg">
    <path
        d="M5.30793 0.5H48.833C51.4883 0.5 53.6409 2.65258 53.6409 5.30793V33.44C53.6409 36.0953 51.4883 38.2479 48.833 38.2479H5.30793C2.65258 38.2479 0.5 36.0953 0.5 33.44V5.30793C0.5 2.65258 2.65258 0.5 5.30793 0.5Z"
        fill="white" stroke="black" />
    <path
        d="M21.8103 21.3614L25.3764 26.8169C25.5496 27.1003 25.5575 27.3837 25.4 27.6671C25.337 27.7931 25.2386 27.8954 25.1048 27.9741C24.971 28.0528 24.8332 28.0922 24.6915 28.0922H22.5424C22.4007 28.0922 22.2669 28.0568 22.1409 27.9859C22.015 27.9151 21.9205 27.8245 21.8575 27.7143L18.2678 22.0227H14.064V27.2656C14.064 27.486 13.9813 27.6789 13.816 27.8442C13.6507 28.0095 13.4578 28.0922 13.2374 28.0922H11.4426C11.2221 28.0922 11.0293 28.0095 10.8639 27.8442C10.6986 27.6789 10.616 27.486 10.616 27.2656V19.4957C10.616 19.2753 10.6986 19.0824 10.8639 18.9171C11.0293 18.7518 11.2221 18.6691 11.4426 18.6691H18.7165C20.102 18.6691 21.0231 18.2755 21.4796 17.4883C21.6371 17.2364 21.7158 16.8743 21.7158 16.4019C21.7158 15.6619 21.4718 15.0794 20.9837 14.6543C20.4799 14.1977 19.7556 13.9694 18.811 13.9694H11.4426C11.2221 13.9694 11.0293 13.8868 10.8639 13.7214C10.6986 13.5561 10.616 13.3633 10.616 13.1428V11.4424C10.616 11.222 10.6986 11.0291 10.8639 10.8638C11.0293 10.6985 11.2221 10.6158 11.4426 10.6158H19.0235C20.8656 10.6158 22.3377 11.1354 23.4398 12.1745C24.5892 13.2137 25.1639 14.6228 25.1639 16.4019C25.1639 17.5513 24.9119 18.5314 24.4081 19.3422C23.9043 20.1531 23.1722 20.771 22.2118 21.1961L21.8103 21.3614ZM43.2306 26.7933C43.3251 26.9035 43.3802 27.0373 43.3959 27.1948C43.4117 27.3522 43.3841 27.5018 43.3133 27.6435C43.2424 27.7852 43.1401 27.8954 43.0063 27.9741C42.8724 28.0528 42.7268 28.0922 42.5694 28.0922H40.3258C40.1841 28.0922 40.0542 28.0607 39.9361 27.9977C39.818 27.9348 39.7196 27.8482 39.6409 27.738L33.9965 19.6138L31.6821 21.7865V27.2656C31.6821 27.486 31.5994 27.6789 31.4341 27.8442C31.2688 28.0095 31.0759 28.0922 30.8555 28.0922H29.0606C28.8402 28.0922 28.6473 28.0095 28.482 27.8442C28.3167 27.6789 28.234 27.486 28.234 27.2656V20.7002C28.234 20.4483 28.3206 20.2515 28.4938 20.1098L38.3656 10.852C38.523 10.6946 38.712 10.6158 38.9324 10.6158H41.483C41.6404 10.6158 41.79 10.6631 41.9317 10.7575C42.0734 10.852 42.1757 10.978 42.2387 11.1354C42.3017 11.2929 42.3174 11.4542 42.286 11.6196C42.2545 11.7849 42.1757 11.9305 42.0498 12.0565L36.5235 17.2521L43.2306 26.7933ZM29.0606 16.6381C28.8402 16.6381 28.6473 16.5594 28.482 16.4019C28.3167 16.2445 28.234 16.0477 28.234 15.8115V11.4424C28.234 11.222 28.3167 11.0291 28.482 10.8638C28.6473 10.6985 28.8402 10.6158 29.0606 10.6158H30.8555C31.0759 10.6158 31.2688 10.6985 31.4341 10.8638C31.5994 11.0291 31.6821 11.222 31.6821 11.4424V15.8115C31.6821 16.0477 31.5994 16.2445 31.4341 16.4019C31.2688 16.5594 31.0759 16.6381 30.8555 16.6381H29.0606Z"
        fill="#111111" />
    <path
        d="M70.0391 15.4502L67.436 11.0471H66.8337V15.4502H64.7568V5.44629H68.3844C70.6482 5.44629 71.6036 6.78242 71.6036 8.43703C71.6036 9.78011 70.842 10.6524 69.4851 10.9432L72.4966 15.4501L70.0391 15.4502ZM66.8336 7.17038V9.55882H68.059C69.1667 9.55882 69.6167 9.08807 69.6167 8.36806C69.6167 7.65499 69.1667 7.17038 68.059 7.17038H66.8336ZM82.4191 15.4502L81.6921 13.3871H77.49L76.7631 15.4502H74.6377L78.3209 5.44629H80.8617L84.5449 15.4502H82.4195H82.4191ZM78.0993 11.6493H81.0831L79.5947 7.40538L78.0993 11.6493ZM89.2746 15.5886C88.4992 15.5886 87.5577 15.3809 86.63 14.8963L87.5092 13.1864C88.0008 13.5325 88.4785 13.7194 89.0254 13.7194C89.8423 13.7194 90.2577 13.2279 90.2577 12.0579V5.44655H92.3346V12.4457C92.3346 14.4949 91.0884 15.5886 89.2746 15.5886ZM103.164 15.4502L102.437 13.3871H98.2348L97.5079 15.4502H95.3826L99.0657 5.44629H101.606L105.29 15.4502H103.164H103.164ZM98.8441 11.6493H101.828L100.339 7.40538L98.8441 11.6493ZM114.298 5.44629V7.27399H111.923V15.4499H109.867V7.27399H107.479V5.44629H114.298ZM128.881 15.4502L125.773 11.1995H125.039V15.4502H122.962V5.44629H125.039V9.37865H125.745L128.881 5.44629H131.415L127.538 10.2301L131.533 15.4502H128.881ZM141.42 15.4502L140.694 13.3871H136.491L135.764 15.4502H133.639L137.322 5.44629H139.863L143.546 15.4502H141.421H141.42ZM137.101 11.6493H140.084L138.596 7.40538L137.101 11.6493ZM152.035 15.4502L149.432 11.0471H148.83V15.4502H146.753V5.44629H150.381C152.644 5.44629 153.6 6.78242 153.6 8.43703C153.6 9.78011 152.838 10.6524 151.481 10.9432L154.493 15.4501L152.035 15.4502ZM148.83 7.17038V9.55882H150.055C151.163 9.55882 151.613 9.08807 151.613 8.36806C151.613 7.65499 151.163 7.17038 150.055 7.17038H148.83ZM169.185 15.4502H167.115L166.458 7.91084L163.924 15.4502H162.581L160.047 7.91084L159.382 15.4502H157.305L158.143 5.44629H161.106L163.238 11.7255L165.398 5.44629H168.361L169.185 15.4502ZM177.494 15.5886C174.552 15.5886 172.378 13.5809 172.378 10.4447C172.378 7.30168 174.552 5.30792 177.494 5.30792C180.43 5.30792 182.604 7.30175 182.604 10.4447C182.604 13.5809 180.43 15.5886 177.494 15.5886ZM177.494 13.6848C179.218 13.6848 180.541 12.4733 180.541 10.4448C180.541 8.42332 179.218 7.21869 177.494 7.21869C175.771 7.21869 174.448 8.42328 174.448 10.4448C174.448 12.4733 175.771 13.6848 177.494 13.6848ZM192.139 15.4502L189.03 11.1995H188.296V15.4502H186.219V5.44629H188.296V9.37865H189.003L192.139 5.44629H194.672L190.795 10.2301L194.79 15.4502H192.139ZM204.678 15.4502L203.951 13.3871H199.749L199.022 15.4502H196.896L200.58 5.44629H203.12L206.804 15.4502H204.678H204.678ZM200.358 11.6493H203.342L201.853 7.40538L200.358 11.6493ZM215.293 15.4502L212.69 11.0471H212.087V15.4502H210.01V5.44629H213.638C215.902 5.44629 216.857 6.78242 216.857 8.43703C216.857 9.78011 216.096 10.6524 214.739 10.9432L217.75 15.4501L215.293 15.4502ZM212.087 7.17038V9.55882H213.312C214.42 9.55882 214.87 9.08807 214.87 8.36806C214.87 7.65499 214.42 7.17038 213.312 7.17038H212.087Z"
        fill="white" />
    <path
        d="M73.9201 26.0089H75.0962L72.6622 33.6381H71.4554L69.9827 29.128L68.551 33.6381H67.3442L64.7568 26.0089H65.9022L67.9272 31.7154L69.3589 27.2156L68.9703 26.0089H70.1157L72.0383 31.7154L73.9201 26.0089ZM77.6938 30.5802V32.5233H82.3981V33.6381H76.579V26.0089H81.9481V27.1338H77.6938V29.4451C77.9051 29.3223 78.1403 29.2405 78.3994 29.1996C78.5903 29.1655 78.8358 29.1485 79.1357 29.1485H80.8027V30.2837H79.1357C78.8562 30.2837 78.6108 30.3007 78.3994 30.3348C78.1403 30.3825 77.9051 30.4643 77.6938 30.5802ZM85.2923 27.1338V29.4655C85.5036 29.3428 85.7423 29.2576 86.0082 29.2098C86.2059 29.1758 86.4513 29.1587 86.7445 29.1587H88.0535C88.4081 29.1587 88.6859 29.0701 88.887 28.8928C89.0881 28.7155 89.1887 28.4531 89.1887 28.1053C89.1887 27.4577 88.8103 27.1338 88.0535 27.1338H85.2923ZM85.2923 30.6007V32.5233H88.166C88.391 32.5233 88.6058 32.4824 88.8103 32.4006C89.0353 32.3188 89.2126 32.1995 89.3421 32.0427C89.4921 31.8586 89.5671 31.6472 89.5671 31.4086C89.5671 30.9995 89.4069 30.703 89.0864 30.5189C88.8342 30.3689 88.4899 30.2939 88.0535 30.2939H86.7445C86.1582 30.2939 85.6741 30.3962 85.2923 30.6007ZM90.6716 31.5518C90.6716 32.029 90.5387 32.4347 90.2728 32.7688C90.0409 33.0619 89.7137 33.2835 89.291 33.4335C88.916 33.5699 88.5035 33.6381 88.0535 33.6381H84.1878V26.0089H88.0535C88.4899 26.0089 88.8768 26.0907 89.2143 26.2543C89.5518 26.4179 89.816 26.6531 90.0069 26.9599C90.2046 27.2804 90.3034 27.6588 90.3034 28.0951C90.3034 28.4292 90.2438 28.7275 90.1245 28.99C90.0052 29.2525 89.8364 29.4553 89.6182 29.5985C89.9114 29.7348 90.1534 29.9598 90.3443 30.2734C90.5625 30.6348 90.6716 31.0609 90.6716 31.5518ZM96.8077 27.1338V32.5233H98.536C99.0133 32.5233 99.4428 32.4006 99.8246 32.1552C100.186 31.9165 100.469 31.5961 100.673 31.1938C100.878 30.7916 100.98 30.3518 100.98 29.8746C100.98 29.3769 100.883 28.9201 100.689 28.5042C100.494 28.0883 100.217 27.7576 99.8553 27.5122C99.4667 27.2599 99.0201 27.1338 98.5156 27.1338H96.8077ZM95.11 27.1338L94.6192 26.0089H98.5053C99.1803 26.0089 99.7973 26.1827 100.356 26.5304C100.895 26.8645 101.321 27.3213 101.635 27.9008C101.948 28.4803 102.105 29.111 102.105 29.7928C102.105 30.3041 102.005 30.8103 101.804 31.3115C101.602 31.8126 101.325 32.2506 100.97 32.6256C100.629 32.9938 100.264 33.2563 99.8757 33.4131C99.5008 33.5631 99.0542 33.6381 98.536 33.6381H95.7134V27.1338H95.11ZM104.958 30.5802V32.5233H109.663V33.6381H103.844V26.0089H109.213V27.1338H104.958V29.4451C105.17 29.3223 105.405 29.2405 105.664 29.1996C105.855 29.1655 106.1 29.1485 106.4 29.1485H108.067V30.2837H106.4C106.121 30.2837 105.875 30.3007 105.664 30.3348C105.405 30.3825 105.17 30.4643 104.958 30.5802ZM118.304 26.0089L115.103 33.6381H113.784L110.634 26.0089H111.841L114.449 32.3904L117.077 26.0089H118.304Z"
        fill="lightgray" />
</svg>