<svg width="214" height="154" viewBox="0 0 214 154" fill="none" xmlns="http://www.w3.org/2000/svg">
<path d="M198.657 120.857L167.888 44.3074L167.59 43.8643C164.778 38.9652 159.747 36 153.977 36C148.208 36 143.185 38.9729 140.373 43.8643L140.228 44.1623L109.452 120.856C107.081 126.345 107.675 132.575 110.785 137.328C113.597 141.631 118.178 144 123.208 144H185.045C190.075 144 194.511 141.776 197.323 137.618C200.288 133.024 200.875 126.643 198.657 120.857ZM123.506 105.725L147.027 47.4265C148.505 44.9044 151.165 43.4223 154.13 43.4223C157.095 43.4223 159.603 44.9044 161.234 47.4265L173.512 77.982C161.974 93.5578 143.924 104.242 123.507 105.725H123.506Z" fill="white"/>
<path d="M15.7227 139C16.8757 130.981 17.7404 123.408 18.3169 116.281C18.8934 109.153 19.1816 102.419 19.1816 96.0771C19.1816 88.7399 18.8672 81.7433 18.2383 75.0874C17.6618 68.3791 16.9805 62.0114 16.1943 55.9844L15.7227 53.3115C18.9196 52.9447 22.0903 52.2109 25.2349 51.1104C28.4318 49.9574 31.8646 48.3589 35.5332 46.3149C34.3278 53.9666 33.4106 60.9894 32.7817 67.3833C32.2052 73.7772 31.917 79.5946 31.917 84.8354C31.917 85.7788 31.917 86.6436 31.917 87.4297C31.917 88.2158 31.9432 89.0806 31.9956 90.0239C32.048 90.9673 32.1004 92.0679 32.1528 93.3257C32.2052 94.5835 32.2839 96.1296 32.3887 97.9639L33.8823 98.6714C40.381 101.03 46.2246 102.209 51.4131 102.209C55.0293 102.157 58.4097 101.632 61.5542 100.637C64.7511 99.5885 67.6598 98.1473 70.2803 96.313C72.9531 94.4787 75.1019 92.2251 76.7266 89.5522C78.3512 86.8794 79.478 83.8659 80.1069 80.5117C80.4214 78.625 80.6572 76.8693 80.8145 75.2446C81.0241 73.5675 81.1289 71.9953 81.1289 70.5278C81.1289 67.9074 80.8407 65.3656 80.2642 62.9023C79.6877 60.3867 78.9277 58.0283 77.9844 55.8271C77.041 53.5736 75.9404 51.5296 74.6826 49.6953C73.4772 47.8086 72.2194 46.1577 70.9092 44.7427C69.7038 43.4849 68.1577 42.2795 66.271 41.1265C64.4367 39.9735 62.3403 38.9515 59.9819 38.0605C57.6235 37.1696 55.0293 36.4621 52.1992 35.938C49.4215 35.4139 46.4342 35.1519 43.2373 35.1519C40.512 35.1519 37.6296 35.4925 34.5898 36.1738C31.6025 36.8027 28.5628 37.7199 25.4707 38.9253C22.3786 40.1307 19.2603 41.5981 16.1157 43.3276C13.0236 45.0571 10.0101 47.0225 7.0752 49.2236L12.3423 28.627C16.4302 27.0023 19.5223 25.7707 21.6187 24.9321C23.715 24.0936 24.868 23.6481 25.0776 23.5957C29.7944 22.3379 33.8037 21.4207 37.1055 20.8442C40.4072 20.2153 43.1325 19.9009 45.2812 19.9009C47.7445 19.9009 50.5221 20.2153 53.6143 20.8442C56.7588 21.4207 59.9557 22.3379 63.2051 23.5957C66.5068 24.8011 69.7038 26.321 72.7959 28.1553C75.9404 29.9372 78.7705 32.0073 81.2861 34.3657C83.3825 36.3573 85.2954 38.637 87.0249 41.2051C88.7544 43.7207 90.248 46.4198 91.5059 49.3022C92.7637 52.1847 93.7332 55.1982 94.4146 58.3428C95.0959 61.4873 95.4365 64.658 95.4365 67.855C95.3841 70.6851 95.0959 73.5151 94.5718 76.3452C94.0477 79.1229 93.2091 81.953 92.0562 84.8354C90.9032 87.6655 89.2523 90.4956 87.1035 93.3257C84.9548 96.1034 82.2295 98.75 78.9277 101.266C78.194 101.842 77.4865 102.314 76.8052 102.681L76.7266 102.759C79.7663 108.734 82.8846 114.158 86.0815 119.032C89.3309 123.854 92.6851 128.178 96.144 132.003C92.9471 132.37 89.7502 133.13 86.5532 134.283C83.4087 135.384 80.0021 136.956 76.3335 139C71.4071 123.33 67.555 112.848 64.7773 107.555C64.2533 107.66 63.6506 107.764 62.9692 107.869C62.2879 107.974 61.4756 108.079 60.5322 108.184C59.5889 108.288 58.5669 108.393 57.4663 108.498C56.3657 108.55 55.2913 108.577 54.2432 108.577C50.7842 108.577 47.3514 108.315 43.9448 107.791C40.5907 107.214 37.2365 106.454 33.8823 105.511L32.7031 105.275C33.1224 112.298 33.4893 117.879 33.8037 122.02C34.1182 126.107 34.485 128.754 34.9043 129.959L35.5332 131.768C33.07 132.03 30.8164 132.423 28.7725 132.947C26.7809 133.471 24.9728 134.1 23.3481 134.833C21.7235 135.567 20.2822 136.301 19.0244 137.035C17.7666 137.716 16.666 138.371 15.7227 139Z" fill="white"/>
</svg>
