<svg width="11" height="9" viewBox="0 0 11 9" fill="none" xmlns="http://www.w3.org/2000/svg">
<path d="M1.17188 9C1.25781 8.40234 1.32227 7.83789 1.36523 7.30664C1.4082 6.77539 1.42969 6.27344 1.42969 5.80078C1.42969 5.25391 1.40625 4.73242 1.35938 4.23633C1.31641 3.73633 1.26562 3.26172 1.20703 2.8125L1.17188 2.61328C1.41016 2.58594 1.64648 2.53125 1.88086 2.44922C2.11914 2.36328 2.375 2.24414 2.64844 2.0918C2.55859 2.66211 2.49023 3.18555 2.44336 3.66211C2.40039 4.13867 2.37891 4.57227 2.37891 4.96289C2.37891 5.0332 2.37891 5.09766 2.37891 5.15625C2.37891 5.21484 2.38086 5.2793 2.38477 5.34961C2.38867 5.41992 2.39258 5.50195 2.39648 5.5957C2.40039 5.68945 2.40625 5.80469 2.41406 5.94141L2.52539 5.99414C3.00977 6.16992 3.44531 6.25781 3.83203 6.25781C4.10156 6.25391 4.35352 6.21484 4.58789 6.14062C4.82617 6.0625 5.04297 5.95508 5.23828 5.81836C5.4375 5.68164 5.59766 5.51367 5.71875 5.31445C5.83984 5.11523 5.92383 4.89062 5.9707 4.64062C5.99414 4.5 6.01172 4.36914 6.02344 4.24805C6.03906 4.12305 6.04688 4.00586 6.04688 3.89648C6.04688 3.70117 6.02539 3.51172 5.98242 3.32812C5.93945 3.14062 5.88281 2.96484 5.8125 2.80078C5.74219 2.63281 5.66016 2.48047 5.56641 2.34375C5.47656 2.20312 5.38281 2.08008 5.28516 1.97461C5.19531 1.88086 5.08008 1.79102 4.93945 1.70508C4.80273 1.61914 4.64648 1.54297 4.4707 1.47656C4.29492 1.41016 4.10156 1.35742 3.89062 1.31836C3.68359 1.2793 3.46094 1.25977 3.22266 1.25977C3.01953 1.25977 2.80469 1.28516 2.57812 1.33594C2.35547 1.38281 2.12891 1.45117 1.89844 1.54102C1.66797 1.63086 1.43555 1.74023 1.20117 1.86914C0.970703 1.99805 0.746094 2.14453 0.527344 2.30859L0.919922 0.773438C1.22461 0.652344 1.45508 0.560547 1.61133 0.498047C1.76758 0.435547 1.85352 0.402344 1.86914 0.398438C2.2207 0.304688 2.51953 0.236328 2.76562 0.193359C3.01172 0.146484 3.21484 0.123047 3.375 0.123047C3.55859 0.123047 3.76562 0.146484 3.99609 0.193359C4.23047 0.236328 4.46875 0.304688 4.71094 0.398438C4.95703 0.488281 5.19531 0.601563 5.42578 0.738281C5.66016 0.871094 5.87109 1.02539 6.05859 1.20117C6.21484 1.34961 6.35742 1.51953 6.48633 1.71094C6.61523 1.89844 6.72656 2.09961 6.82031 2.31445C6.91406 2.5293 6.98633 2.75391 7.03711 2.98828C7.08789 3.22266 7.11328 3.45898 7.11328 3.69727C7.10938 3.9082 7.08789 4.11914 7.04883 4.33008C7.00977 4.53711 6.94727 4.74805 6.86133 4.96289C6.77539 5.17383 6.65234 5.38477 6.49219 5.5957C6.33203 5.80273 6.12891 6 5.88281 6.1875C5.82812 6.23047 5.77539 6.26562 5.72461 6.29297L5.71875 6.29883C5.94531 6.74414 6.17773 7.14844 6.41602 7.51172C6.6582 7.87109 6.9082 8.19336 7.16602 8.47852C6.92773 8.50586 6.68945 8.5625 6.45117 8.64844C6.2168 8.73047 5.96289 8.84766 5.68945 9C5.32227 7.83203 5.03516 7.05078 4.82812 6.65625C4.78906 6.66406 4.74414 6.67188 4.69336 6.67969C4.64258 6.6875 4.58203 6.69531 4.51172 6.70312C4.44141 6.71094 4.36523 6.71875 4.2832 6.72656C4.20117 6.73047 4.12109 6.73242 4.04297 6.73242C3.78516 6.73242 3.5293 6.71289 3.27539 6.67383C3.02539 6.63086 2.77539 6.57422 2.52539 6.50391L2.4375 6.48633C2.46875 7.00977 2.49609 7.42578 2.51953 7.73438C2.54297 8.03906 2.57031 8.23633 2.60156 8.32617L2.64844 8.46094C2.46484 8.48047 2.29688 8.50977 2.14453 8.54883C1.99609 8.58789 1.86133 8.63477 1.74023 8.68945C1.61914 8.74414 1.51172 8.79883 1.41797 8.85352C1.32422 8.9043 1.24219 8.95312 1.17188 9Z" fill="white"/>
<path d="M4.17188 9C4.25781 8.40234 4.32227 7.83789 4.36523 7.30664C4.4082 6.77539 4.42969 6.27344 4.42969 5.80078C4.42969 5.25391 4.40625 4.73242 4.35938 4.23633C4.31641 3.73633 4.26562 3.26172 4.20703 2.8125L4.17188 2.61328C4.41016 2.58594 4.64648 2.53125 4.88086 2.44922C5.11914 2.36328 5.375 2.24414 5.64844 2.0918C5.55859 2.66211 5.49023 3.18555 5.44336 3.66211C5.40039 4.13867 5.37891 4.57227 5.37891 4.96289C5.37891 5.0332 5.37891 5.09766 5.37891 5.15625C5.37891 5.21484 5.38086 5.2793 5.38477 5.34961C5.38867 5.41992 5.39258 5.50195 5.39648 5.5957C5.40039 5.68945 5.40625 5.80469 5.41406 5.94141L5.52539 5.99414C6.00977 6.16992 6.44531 6.25781 6.83203 6.25781C7.10156 6.25391 7.35352 6.21484 7.58789 6.14062C7.82617 6.0625 8.04297 5.95508 8.23828 5.81836C8.4375 5.68164 8.59766 5.51367 8.71875 5.31445C8.83984 5.11523 8.92383 4.89062 8.9707 4.64062C8.99414 4.5 9.01172 4.36914 9.02344 4.24805C9.03906 4.12305 9.04688 4.00586 9.04688 3.89648C9.04688 3.70117 9.02539 3.51172 8.98242 3.32812C8.93945 3.14062 8.88281 2.96484 8.8125 2.80078C8.74219 2.63281 8.66016 2.48047 8.56641 2.34375C8.47656 2.20312 8.38281 2.08008 8.28516 1.97461C8.19531 1.88086 8.08008 1.79102 7.93945 1.70508C7.80273 1.61914 7.64648 1.54297 7.4707 1.47656C7.29492 1.41016 7.10156 1.35742 6.89062 1.31836C6.68359 1.2793 6.46094 1.25977 6.22266 1.25977C6.01953 1.25977 5.80469 1.28516 5.57812 1.33594C5.35547 1.38281 5.12891 1.45117 4.89844 1.54102C4.66797 1.63086 4.43555 1.74023 4.20117 1.86914C3.9707 1.99805 3.74609 2.14453 3.52734 2.30859L3.91992 0.773438C4.22461 0.652344 4.45508 0.560547 4.61133 0.498047C4.76758 0.435547 4.85352 0.402344 4.86914 0.398438C5.2207 0.304688 5.51953 0.236328 5.76562 0.193359C6.01172 0.146484 6.21484 0.123047 6.375 0.123047C6.55859 0.123047 6.76562 0.146484 6.99609 0.193359C7.23047 0.236328 7.46875 0.304688 7.71094 0.398438C7.95703 0.488281 8.19531 0.601563 8.42578 0.738281C8.66016 0.871094 8.87109 1.02539 9.05859 1.20117C9.21484 1.34961 9.35742 1.51953 9.48633 1.71094C9.61523 1.89844 9.72656 2.09961 9.82031 2.31445C9.91406 2.5293 9.98633 2.75391 10.0371 2.98828C10.0879 3.22266 10.1133 3.45898 10.1133 3.69727C10.1094 3.9082 10.0879 4.11914 10.0488 4.33008C10.0098 4.53711 9.94727 4.74805 9.86133 4.96289C9.77539 5.17383 9.65234 5.38477 9.49219 5.5957C9.33203 5.80273 9.12891 6 8.88281 6.1875C8.82812 6.23047 8.77539 6.26562 8.72461 6.29297L8.71875 6.29883C8.94531 6.74414 9.17773 7.14844 9.41602 7.51172C9.6582 7.87109 9.9082 8.19336 10.166 8.47852C9.92773 8.50586 9.68945 8.5625 9.45117 8.64844C9.2168 8.73047 8.96289 8.84766 8.68945 9C8.32227 7.83203 8.03516 7.05078 7.82812 6.65625C7.78906 6.66406 7.74414 6.67188 7.69336 6.67969C7.64258 6.6875 7.58203 6.69531 7.51172 6.70312C7.44141 6.71094 7.36523 6.71875 7.2832 6.72656C7.20117 6.73047 7.12109 6.73242 7.04297 6.73242C6.78516 6.73242 6.5293 6.71289 6.27539 6.67383C6.02539 6.63086 5.77539 6.57422 5.52539 6.50391L5.4375 6.48633C5.46875 7.00977 5.49609 7.42578 5.51953 7.73438C5.54297 8.03906 5.57031 8.23633 5.60156 8.32617L5.64844 8.46094C5.46484 8.48047 5.29688 8.50977 5.14453 8.54883C4.99609 8.58789 4.86133 8.63477 4.74023 8.68945C4.61914 8.74414 4.51172 8.79883 4.41797 8.85352C4.32422 8.9043 4.24219 8.95312 4.17188 9Z" fill="white"/>
</svg>
