<svg width="55" height="39" viewBox="0 0 55 39" fill="none" xmlns="http://www.w3.org/2000/svg">
    <path
        d="M48.833 0H5.30793C2.37644 0 0 2.37644 0 5.30793V33.44C0 36.3714 2.37644 38.7479 5.30793 38.7479H48.833C51.7644 38.7479 54.1409 36.3714 54.1409 33.44V5.30793C54.1409 2.37644 51.7644 0 48.833 0Z"
        fill="white" />
    <path
        d="M21.8103 21.3614L25.3764 26.8169C25.5496 27.1003 25.5575 27.3837 25.4 27.6671C25.337 27.7931 25.2386 27.8954 25.1048 27.9741C24.971 28.0528 24.8332 28.0922 24.6915 28.0922H22.5424C22.4007 28.0922 22.2669 28.0568 22.1409 27.9859C22.015 27.9151 21.9205 27.8245 21.8575 27.7143L18.2678 22.0227H14.064V27.2656C14.064 27.486 13.9813 27.6789 13.816 27.8442C13.6507 28.0095 13.4578 28.0922 13.2374 28.0922H11.4426C11.2221 28.0922 11.0293 28.0095 10.8639 27.8442C10.6986 27.6789 10.616 27.486 10.616 27.2656V19.4957C10.616 19.2753 10.6986 19.0824 10.8639 18.9171C11.0293 18.7518 11.2221 18.6691 11.4426 18.6691H18.7165C20.102 18.6691 21.0231 18.2755 21.4796 17.4883C21.6371 17.2364 21.7158 16.8743 21.7158 16.4019C21.7158 15.6619 21.4718 15.0794 20.9837 14.6543C20.4799 14.1977 19.7556 13.9694 18.811 13.9694H11.4426C11.2221 13.9694 11.0293 13.8868 10.8639 13.7214C10.6986 13.5561 10.616 13.3633 10.616 13.1428V11.4424C10.616 11.222 10.6986 11.0291 10.8639 10.8638C11.0293 10.6985 11.2221 10.6158 11.4426 10.6158H19.0235C20.8656 10.6158 22.3377 11.1354 23.4398 12.1745C24.5892 13.2137 25.1639 14.6228 25.1639 16.4019C25.1639 17.5513 24.9119 18.5314 24.4081 19.3422C23.9043 20.1531 23.1722 20.771 22.2118 21.1961L21.8103 21.3614ZM43.2306 26.7933C43.3251 26.9035 43.3802 27.0373 43.3959 27.1948C43.4117 27.3522 43.3841 27.5018 43.3133 27.6435C43.2424 27.7852 43.1401 27.8954 43.0063 27.9741C42.8724 28.0528 42.7268 28.0922 42.5694 28.0922H40.3258C40.1841 28.0922 40.0542 28.0607 39.9361 27.9977C39.818 27.9348 39.7196 27.8482 39.6409 27.738L33.9965 19.6138L31.6821 21.7865V27.2656C31.6821 27.486 31.5994 27.6789 31.4341 27.8442C31.2688 28.0095 31.0759 28.0922 30.8555 28.0922H29.0606C28.8402 28.0922 28.6473 28.0095 28.482 27.8442C28.3167 27.6789 28.234 27.486 28.234 27.2656V20.7002C28.234 20.4483 28.3206 20.2515 28.4938 20.1098L38.3656 10.852C38.523 10.6946 38.712 10.6158 38.9324 10.6158H41.483C41.6404 10.6158 41.79 10.6631 41.9317 10.7575C42.0734 10.852 42.1757 10.978 42.2387 11.1354C42.3017 11.2929 42.3174 11.4542 42.286 11.6196C42.2545 11.7849 42.1757 11.9305 42.0498 12.0565L36.5235 17.2521L43.2306 26.7933ZM29.0606 16.6381C28.8402 16.6381 28.6473 16.5594 28.482 16.4019C28.3167 16.2445 28.234 16.0477 28.234 15.8115V11.4424C28.234 11.222 28.3167 11.0291 28.482 10.8638C28.6473 10.6985 28.8402 10.6158 29.0606 10.6158H30.8555C31.0759 10.6158 31.2688 10.6985 31.4341 10.8638C31.5994 11.0291 31.6821 11.222 31.6821 11.4424V15.8115C31.6821 16.0477 31.5994 16.2445 31.4341 16.4019C31.2688 16.5594 31.0759 16.6381 30.8555 16.6381H29.0606Z"
        fill="#111111" />
</svg>